<svg width="1440" height="712" viewBox="0 0 1440 712" fill="none" xmlns="http://www.w3.org/2000/svg">
<g opacity="0.15">
<rect width="1440" height="8" fill="#2A0469"/>
<rect y="16" width="1440" height="8" fill="#2A0469"/>
<rect y="32" width="1440" height="8" fill="#2A0469"/>
<rect y="48" width="1440" height="8" fill="#2A0469"/>
<rect y="64" width="1440" height="8" fill="#2A0469"/>
<rect y="80" width="1440" height="8" fill="#2A0469"/>
<rect y="96" width="1440" height="8" fill="#2A0469"/>
<rect y="112" width="1440" height="8" fill="#2A0469"/>
<rect y="128" width="1440" height="8" fill="#2A0469"/>
<rect y="144" width="1440" height="8" fill="#2A0469"/>
<rect y="160" width="1440" height="8" fill="#2A0469"/>
<rect y="176" width="1440" height="8" fill="#2A0469"/>
<rect y="192" width="1440" height="8" fill="#2A0469"/>
<rect y="208" width="1440" height="8" fill="#2A0469"/>
<rect y="224" width="1440" height="8" fill="#2A0469"/>
<rect y="240" width="1440" height="8" fill="#2A0469"/>
<rect y="256" width="1440" height="8" fill="#2A0469"/>
<rect y="272" width="1440" height="8" fill="#2A0469"/>
<rect y="288" width="1440" height="8" fill="#2A0469"/>
<rect y="304" width="1440" height="8" fill="#2A0469"/>
<rect y="320" width="1440" height="8" fill="#2A0469"/>
<rect y="336" width="1440" height="8" fill="#2A0469"/>
<rect y="352" width="1440" height="8" fill="#2A0469"/>
<rect y="368" width="1440" height="8" fill="#2A0469"/>
<rect y="384" width="1440" height="8" fill="#2A0469"/>
<rect y="400" width="1440" height="8" fill="#2A0469"/>
<rect y="416" width="1440" height="8" fill="#2A0469"/>
<rect y="432" width="1440" height="8" fill="#2A0469"/>
<rect y="448" width="1440" height="8" fill="#2A0469"/>
<rect y="464" width="1440" height="8" fill="#2A0469"/>
<rect y="480" width="1440" height="8" fill="#2A0469"/>
<rect y="496" width="1440" height="8" fill="#2A0469"/>
<rect y="512" width="1440" height="8" fill="#2A0469"/>
<rect y="528" width="1440" height="8" fill="#2A0469"/>
<rect y="544" width="1440" height="8" fill="#2A0469"/>
<rect y="560" width="1440" height="8" fill="#2A0469"/>
<rect y="576" width="1440" height="8" fill="#2A0469"/>
<rect y="592" width="1440" height="8" fill="#2A0469"/>
<rect y="608" width="1440" height="8" fill="#2A0469"/>
<rect y="624" width="1440" height="8" fill="#2A0469"/>
<rect y="640" width="1440" height="8" fill="#2A0469"/>
<rect y="656" width="1440" height="8" fill="#2A0469"/>
<rect y="672" width="1440" height="8" fill="#2A0469"/>
<rect y="688" width="1440" height="8" fill="#2A0469"/>
<rect y="704" width="1440" height="8" fill="#2A0469"/>
</g>
</svg>
